# xmcd CD database file
#
# Track frame offsets:
#	150
#	20428
#	58557
#	83361
#	116145
#	137061
#	162298
#	195539
#	214987
#
# Disc length: 3062 seconds
#
# Revision: 0
# Processed by: cddbd v1.5.1PL0 Copyright (c) Steve Scherf et al.
# Submitted via: CDex 1.51
#
DISCID=750bf409
DTITLE=David Cook - Groovin'In The Desert
DYEAR=1900
DGENRE=Jazz
TTITLE0=Blues Uptown
TTITLE1=Exactly Like You
TTITLE2=Speak Latin
TTITLE3=No Blues
TTITLE4=Ecstasy Island
TTITLE5=Melody Line Blues
TTITLE6=Rio De Bossa
TTITLE7=Sunday Night Blues
TTITLE8=I Got Rhythm In My Changes
EXTD=
EXTT0=
EXTT1=
EXTT2=
EXTT3=
EXTT4=
EXTT5=
EXTT6=
EXTT7=
EXTT8=
PLAYORDER=
